#!OML:ASF E:\emotionWalksFemale\Project 1\Capture day 1\Session 1\Female1.ASF
:FULLY-SPECIFIED
:DEGREES
1475
root 9.19609 15.1991 32.7197 177.778 -177.402 -186.78
lowerback 5.71014 3.75698 3.5425
upperback -4.73341 5.55204 2.34513
thorax -8.08932 2.59342 -0.200697
lowerneck 2.69921 -5.72911 -10.7371
upperneck 15.1651 -9.52427 14.1843
head 5.23901 -4.59911 5.86381
rclavicle -1.31943e-014 -8.94531e-015
rhumerus -43.0539 14.3351 -83.1169
rradius 65.5853
rwrist 3.99691
rhand -3.90835 -52.9396
rfingers 7.12502
rthumb 21.842 998.273
lclavicle -1.31943e-014 -8.94531e-015
lhumerus -66.342 2.2209 68.9826
lradius 30.5203
lwrist -35.7652
lhand 8.61797 -24.6196
lfingers 7.12502
lthumb 33.8144 2.20517
rfemur 8.23556 13.7529 39.5195
rtibia 12.4505
rfoot -13.7029 -19.8544
rtoes 7.76849
lfemur -31.1338 -25.3128 -5.33057
ltibia 38.7997
lfoot -24.0924 10.8231
ltoes -25.2464
1476
root 9.20553 15.1889 32.8472 177.999 -176.845 -187.031
lowerback 5.5405 3.98556 3.7325
upperback -4.7508 5.87636 2.47282
thorax -7.99869 2.74812 -0.197444
lowerneck 2.76057 -5.77292 -10.9317
upperneck 15.1293 -9.60944 14.3685
head 5.24601 -4.6456 5.95394
rclavicle -4.99446e-015 5.56597e-015
rhumerus -43.1056 14.2101 -82.903
rradius 65.334
rwrist 3.92767
rhand -3.63637 -52.0819
rfingers 7.12502
rthumb 22.1031 999.161
lclavicle -4.99446e-015 5.56597e-015
lhumerus -66.4858 2.67653 67.9845
lradius 30.3013
lwrist -36.5433
lhand 8.64813 -24.3758
lfingers 7.12502
lthumb 33.843 2.44271
rfemur 9.079 13.3664 39.6173
rtibia 11.4211
rfoot -13.5007 -18.8344
rtoes 8.8927
lfemur -31.9433 -27.581 -3.85718
ltibia 36.748
lfoot -24.3305 11.7541
ltoes -26.6724
1477
root 9.21291 15.1753 32.9781 178.217 -176.238 -187.204
lowerback 5.50802 4.23743 3.92235
upperback -4.87939 6.23863 2.50194
thorax -8.09566 2.91243 -0.315121
lowerneck 2.86971 -5.80071 -10.9656
upperneck 15.1917 -9.67651 14.4634
head 5.26108 -4.6789 5.99121
rclavicle -3.92848e-014 -6.0033e-014
rhumerus -43.5094 14.0703 -82.92
rradius 65.2395
rwrist 3.94927
rhand -3.49889 -52.2059
rfingers 7.12502
rthumb 22.2351 999.053
lclavicle -3.92848e-014 -6.0033e-014
lhumerus -66.6006 3.27635 66.4573
lradius 29.8725
lwrist -37.7077
lhand 8.89997 -24.4626
lfingers 7.12502
lthumb 34.0823 2.30286
rfemur 9.99533 13.0774 39.6539
rtibia 10.3126
rfoot -13.0621 -17.9976
rtoes 7.79158
lfemur -32.7632 -29.5532 -2.47818
ltibia 34.8933
lfoot -24.6625 13.7451
ltoes -34.3943
1478
root 9.21972 15.1607 33.1077 178.398 -175.643 -187.378
lowerback 5.75257 4.38731 4.29088
upperback -5.09273 6.49264 2.38165
thorax -8.41085 2.9994 -0.700669
lowerneck 2.89075 -5.81355 -10.9107
upperneck 15.5147 -9.75907 14.6288
head 5.37181 -4.70369 6.03581
rclavicle 7.12892e-014 4.19436e-014
rhumerus -43.9698 14.0231 -83.3268
rradius 65.0793
rwrist 3.91233
rhand -3.25048 -52.5242
rfingers 7.12502
rthumb 22.4736 998.763
lclavicle 7.12892e-014 4.19436e-014
lhumerus -66.8155 3.95227 64.5246
lradius 29.6122
lwrist -38.7135
lhand 9.16487 -24.7315
lfingers 7.12502
lthumb 34.3338 1.9775
rfemur 10.9163 12.8996 39.7242
rtibia 9.29797
rfoot -12.5384 -17.3998
rtoes 4.51955
lfemur -33.5724 -31.4028 -1.11552
ltibia 33.2055
lfoot -25.0395 15.0174
ltoes -36.3019
1479
root 9.2298 15.1534 33.2342 178.514 -175.11 -187.507
lowerback 5.72427 4.56112 4.43419
upperback -5.07149 6.74058 2.44266
thorax -8.35518 3.1159 -0.740509
lowerneck 2.94339 -5.84603 -11.0933
upperneck 15.6064 -9.85652 14.8959
head 5.42467 -4.74916 6.1525
rclavicle -2.28105e-014 -2.54444e-014
rhumerus -44.3022 14.2575 -83.354
rradius 65.2091
rwrist 3.48122
rhand -2.88282 -52.7364
rfingers 7.12502
rthumb 22.8264 998.594
lclavicle -2.28105e-014 -2.54444e-014
lhumerus -66.7662 4.90647 63.0083
lradius 29.3925
lwrist -39.6348
lhand 9.16977 -24.6741
lfingers 7.12502
lthumb 34.3385 2.03389
rfemur 11.9345 12.6506 39.7213
rtibia 8.16286
rfoot -12.0472 -16.6472
rtoes 3.26771
lfemur -34.3461 -33.0889 0.0828633
ltibia 31.7589
lfoot -25.4707 15.7269
ltoes -35.776
1480
root 9.24081 15.1502 33.356 178.846 -174.134 -187.643
lowerback 5.56203 4.94604 4.65966
upperback -5.14036 7.2683 2.42257
thorax -8.28773 3.36166 -0.931882
lowerneck 3.19052 -5.87695 -11.2449
upperneck 15.5137 -9.96663 15.3031
head 5.39374 -4.80433 6.31522
rclavicle -1.635e-014 -9.34288e-015
rhumerus -44.6546 14.2305 -83.416
rradius 65.0058
rwrist 3.27382
rhand -2.9104 -52.734
rfingers 7.12502
rthumb 22.8 998.593
lclavicle -1.635e-014 -9.34288e-015
lhumerus -66.5352 5.50748 61.7137
lradius 29.1077
lwrist -40.3152
lhand 9.12599 -24.4532
lfingers 7.12502
lthumb 34.2969 2.26415
rfemur 13.0858 12.9029 39.6622
rtibia 6.33949
rfoot -11.0774 -15.7798
rtoes 3.01598
lfemur -35.271 -34.3507 1.38664
ltibia 30.6663
lfoot -25.8918 16.3608
ltoes -35.5937
